<svg width="57" height="42" viewBox="0 0 57 42" fill="none" xmlns="http://www.w3.org/2000/svg">
<path d="M51.0827 3.5C51.5434 3.5 51.9853 3.68437 52.3111 4.01256C52.6368 4.34075 52.8199 4.78587 52.8199 5.25V36.75C52.8199 37.2141 52.6368 37.6592 52.3111 37.9874C51.9853 38.3156 51.5434 38.5 51.0827 38.5H5.91728C5.45656 38.5 5.01472 38.3156 4.68894 37.9874C4.36317 37.6592 4.18015 37.2141 4.18015 36.75V5.25C4.18015 4.78587 4.36317 4.34075 4.68894 4.01256C5.01472 3.68437 5.45656 3.5 5.91728 3.5H51.0827ZM5.91728 0C4.53513 0 3.20959 0.553124 2.23227 1.53769C1.25494 2.52226 0.705883 3.85761 0.705883 5.25L0.705883 36.75C0.705883 38.1424 1.25494 39.4777 2.23227 40.4623C3.20959 41.4469 4.53513 42 5.91728 42H51.0827C52.4649 42 53.7904 41.4469 54.7677 40.4623C55.7451 39.4777 56.2941 38.1424 56.2941 36.75V5.25C56.2941 3.85761 55.7451 2.52226 54.7677 1.53769C53.7904 0.553124 52.4649 0 51.0827 0H5.91728Z" fill="#272727"/>
<path d="M8.8125 23.1232C8.8125 22.601 9.01992 22.1003 9.38913 21.731C9.75835 21.3618 10.2591 21.1544 10.7812 21.1544H46.2188C46.7409 21.1544 47.2417 21.3618 47.6109 21.731C47.9801 22.1003 48.1875 22.601 48.1875 23.1232C48.1875 23.6453 47.9801 24.1461 47.6109 24.5153C47.2417 24.8845 46.7409 25.0919 46.2188 25.0919H10.7812C10.2591 25.0919 9.75835 24.8845 9.38913 24.5153C9.01992 24.1461 8.8125 23.6453 8.8125 23.1232ZM8.8125 30.9982C8.8125 30.476 9.01992 29.9753 9.38913 29.606C9.75835 29.2368 10.2591 29.0294 10.7812 29.0294H34.4062C34.9284 29.0294 35.4292 29.2368 35.7984 29.606C36.1676 29.9753 36.375 30.476 36.375 30.9982C36.375 31.5203 36.1676 32.0211 35.7984 32.3903C35.4292 32.7595 34.9284 32.9669 34.4062 32.9669H10.7812C10.2591 32.9669 9.75835 32.7595 9.38913 32.3903C9.01992 32.0211 8.8125 31.5203 8.8125 30.9982ZM8.8125 11.3107C8.8125 10.7885 9.01992 10.2878 9.38913 9.91855C9.75835 9.54933 10.2591 9.34191 10.7812 9.34191H46.2188C46.7409 9.34191 47.2417 9.54933 47.6109 9.91855C47.9801 10.2878 48.1875 10.7885 48.1875 11.3107V15.2482C48.1875 15.7703 47.9801 16.2711 47.6109 16.6403C47.2417 17.0095 46.7409 17.2169 46.2188 17.2169H10.7812C10.2591 17.2169 9.75835 17.0095 9.38913 16.6403C9.01992 16.2711 8.8125 15.7703 8.8125 15.2482V11.3107Z" fill="#272727"/>
</svg>
